<?xml version="1.0" encoding="UTF-8"?>
<svg id="Ebene_1"
  xmlns="http://www.w3.org/2000/svg" version="1.1" viewBox="0 0 401.6 141.8">
  <!-- Generator: Adobe Illustrator 30.0.0, SVG Export Plug-In . SVG Version: 2.1.1 Build 123)  -->
  <defs>
    <style>
      .st0 {
        fill: #007e3e;
      }
    </style>
  </defs>
  <g id="Ebene_1-2">
    <path class="st0" d="M70.9,0C31.8,0,0,31.8,0,70.9s31.8,70.9,70.9,70.9,70.9-31.8,70.9-70.9S109.9,0,70.9,0ZM115.3,69h-42.5V28.8c23,1,41.4,18.4,42.5,40.2ZM96.7,32c23.2,6.1,39.9,20.3,41.1,37h-18.6c-.7-15.6-9.5-29.1-22.5-37ZM72.8,72.9h42.5c-1,21.7-19.5,39.2-42.5,40.2v-40.2ZM119.2,72.9h18.6c-1.2,16.7-17.8,30.8-41.1,37,13-7.9,21.8-21.5,22.5-37ZM134.9,51.1c-11.1-15.2-34.7-25.8-62-26.3V4c29.1.8,53.7,20.4,62,47.1ZM68.9,4v20.9c-27.4.5-50.9,11.1-62,26.3C15.1,24.4,39.7,4.8,68.9,4ZM22.4,72.9c.7,15.5,9.4,29,22.4,36.9-23.1-6.2-39.6-20.3-40.8-36.9h18.4ZM4,69c1.2-16.6,17.7-30.7,40.8-36.9-12.9,7.9-21.7,21.4-22.4,36.9H4ZM26.3,72.9h42.6v40.2c-23-1-41.6-18.5-42.6-40.2ZM68.9,69H26.3c1-21.8,19.6-39.3,42.6-40.2,0,0,0,40.2,0,40.2ZM6.9,90.7c11.1,15.2,34.7,25.8,62,26.3v20.9c-29.2-.9-53.8-20.5-62-47.2ZM72.8,137.9v-20.9c27.4-.5,50.9-11.1,62-26.3-8.2,26.7-32.8,46.3-62,47.2Z"/>
    <g>
      <path class="st0" d="M259.1,56.3c-1.6-4.4-3.9-8.2-7-11.4-3-3.2-6.7-5.7-10.9-7.4s-8.9-2.6-14.1-2.6h-28.8v71.8h28.8c5.2,0,9.9-.9,14.1-2.6,4.2-1.7,7.9-4.2,10.9-7.3,3-3.2,5.3-7,6.9-11.4s2.4-9.3,2.4-14.6-.7-10.1-2.3-14.5M246.5,80.7c-1,2.9-2.4,5.4-4.2,7.4-1.8,2.1-4.1,3.6-6.7,4.7s-5.6,1.6-9,1.6h-15v-47.1h15c3.3,0,6.3.5,8.9,1.6s4.8,2.7,6.7,4.7,3.3,4.5,4.3,7.4,1.4,6.2,1.4,9.8-.5,6.9-1.4,9.9"/>
      <path class="st0" d="M263.1,47.1c1.8-.4,3.7-.6,5.7-.6s4.6.3,6.8,1c2.2.7,4.3,1.6,6.3,2.9,2,1.2,4,2.8,5.9,4.6l8.4-8.8c-1.8-2.3-4.2-4.4-7-6.3-2.8-1.8-5.9-3.3-9.4-4.3s-7.1-1.5-10.9-1.5-10,.9-14.5,2.6l8.7,10.4Z"/>
      <path class="st0" d="M233.8,85.1c1-.6,2-1.2,2.8-2.1,1.1-1.3,2-2.8,2.6-4.7.7-2.1,1-4.6,1-7.4s-.4-5.3-1-7.4c-.6-1.9-1.5-3.4-2.6-4.7-.8-.9-1.7-1.5-2.8-2.1-1.8,4.4-2.7,9-2.7,14.1.1,5.1,1,9.9,2.7,14.3"/>
      <path class="st0" d="M301.1,73.9c0-.9-.1-1.7-.2-2.7-.1-.9-.2-1.8-.3-2.5h-14.8l-10.1,10.5-1.4,1.4h13c0,2.1-.5,4.1-1.4,5.8-.9,1.8-2.2,3.3-3.9,4.7-1.7,1.3-3.7,2.4-5.8,3.1-2.2.8-4.5,1.1-7.1,1.1s-4.1-.3-6.1-.8l-8.8,10.6c4.4,1.7,9.2,2.6,14.3,2.6s8.8-.8,12.8-2.3c3.9-1.5,7.4-3.7,10.4-6.5s5.3-6.1,6.9-10,2.5-8.1,2.5-12.9c.1-.5.1-1.3,0-2.1"/>
      <path class="st0" d="M336.4,70.1l1.3-1.3h-17.7v-17.3c0-1.2.2-2.3.7-3.2.4-.9,1.1-1.6,2.1-2,.9-.4,2.1-.7,3.4-.7h1.3l7.7-7.7c-1.3-1.2-2.8-2.1-4.5-2.8-2-.8-4.1-1.2-6.5-1.2s-6.3.7-8.8,2.2-4.5,3.5-5.9,6c-1.4,2.6-2.2,5.5-2.2,8.8v55.7h12.7v-26.9h6.7l9.7-9.7h0v.1Z"/>
      <polygon class="st0" points="401.6 35 384.2 35 357 62.2 357 35 343.7 35 343.7 106.8 357 106.8 357 79.6 384.1 106.7 401.5 106.7 365.7 70.9 401.6 35"/>
      <path class="st0" d="M363,62.2h0Z"/>
      <path class="st0" d="M363,62.2h0Z"/>
    </g>
  </g>
</svg>